<svg width="165" height="34" viewBox="0 0 165 34" fill="none" xmlns="http://www.w3.org/2000/svg">
<path d="M18.76 4.92V10.4H7.32V16.32H15.88V21.64H7.32V33H0.48V4.92H18.76ZM25.795 8.36C24.595 8.36 23.6083 8.01333 22.835 7.32C22.0883 6.6 21.715 5.72 21.715 4.68C21.715 3.61333 22.0883 2.73333 22.835 2.04C23.6083 1.32 24.595 0.959998 25.795 0.959998C26.9683 0.959998 27.9283 1.32 28.675 2.04C29.4483 2.73333 29.835 3.61333 29.835 4.68C29.835 5.72 29.4483 6.6 28.675 7.32C27.9283 8.01333 26.9683 8.36 25.795 8.36ZM29.195 10.68V33H22.355V10.68H29.195ZM46.5919 27.2V33H43.1119C40.6319 33 38.6985 32.4 37.3119 31.2C35.9252 29.9733 35.2319 27.9867 35.2319 25.24V16.36H32.5119V10.68H35.2319V5.24H42.0719V10.68H46.5519V16.36H42.0719V25.32C42.0719 25.9867 42.2319 26.4667 42.5519 26.76C42.8719 27.0533 43.4052 27.2 44.1519 27.2H46.5919ZM76.7619 4.92L66.8019 33H58.2419L48.2819 4.92H55.5619L62.5219 26.12L69.5219 4.92H76.7619ZM100.661 21.48C100.661 22.12 100.621 22.7867 100.541 23.48H85.0606C85.1673 24.8667 85.6073 25.9333 86.3806 26.68C87.1806 27.4 88.154 27.76 89.3006 27.76C91.0073 27.76 92.194 27.04 92.8606 25.6H100.141C99.7673 27.0667 99.0873 28.3867 98.1006 29.56C97.1406 30.7333 95.9273 31.6533 94.4606 32.32C92.994 32.9867 91.354 33.32 89.5406 33.32C87.354 33.32 85.4073 32.8533 83.7006 31.92C81.994 30.9867 80.6606 29.6533 79.7006 27.92C78.7406 26.1867 78.2606 24.16 78.2606 21.84C78.2606 19.52 78.7273 17.4933 79.6606 15.76C80.6206 14.0267 81.954 12.6933 83.6606 11.76C85.3673 10.8267 87.3273 10.36 89.5406 10.36C91.7006 10.36 93.6206 10.8133 95.3006 11.72C96.9806 12.6267 98.2873 13.92 99.2206 15.6C100.181 17.28 100.661 19.24 100.661 21.48ZM93.6606 19.68C93.6606 18.5067 93.2606 17.5733 92.4606 16.88C91.6606 16.1867 90.6606 15.84 89.4606 15.84C88.314 15.84 87.3406 16.1733 86.5406 16.84C85.7673 17.5067 85.2873 18.4533 85.1006 19.68H93.6606ZM111.109 14.4C111.909 13.1733 112.909 12.2133 114.109 11.52C115.309 10.8 116.642 10.44 118.109 10.44V17.68H116.229C114.522 17.68 113.242 18.0533 112.389 18.8C111.536 19.52 111.109 20.8 111.109 22.64V33H104.269V10.68H111.109V14.4ZM130.458 33.32C128.512 33.32 126.778 32.9867 125.258 32.32C123.738 31.6533 122.538 30.7467 121.658 29.6C120.778 28.4267 120.285 27.12 120.178 25.68H126.938C127.018 26.4533 127.378 27.08 128.018 27.56C128.658 28.04 129.445 28.28 130.378 28.28C131.232 28.28 131.885 28.12 132.338 27.8C132.818 27.4533 133.058 27.0133 133.058 26.48C133.058 25.84 132.725 25.3733 132.058 25.08C131.392 24.76 130.312 24.4133 128.818 24.04C127.218 23.6667 125.885 23.28 124.818 22.88C123.752 22.4533 122.832 21.8 122.058 20.92C121.285 20.0133 120.898 18.8 120.898 17.28C120.898 16 121.245 14.84 121.938 13.8C122.658 12.7333 123.698 11.8933 125.058 11.28C126.445 10.6667 128.085 10.36 129.978 10.36C132.778 10.36 134.978 11.0533 136.578 12.44C138.205 13.8267 139.138 15.6667 139.378 17.96H133.058C132.952 17.1867 132.605 16.5733 132.018 16.12C131.458 15.6667 130.712 15.44 129.778 15.44C128.978 15.44 128.365 15.6 127.938 15.92C127.512 16.2133 127.298 16.6267 127.298 17.16C127.298 17.8 127.632 18.28 128.298 18.6C128.992 18.92 130.058 19.24 131.498 19.56C133.152 19.9867 134.498 20.4133 135.538 20.84C136.578 21.24 137.485 21.9067 138.258 22.84C139.058 23.7467 139.472 24.9733 139.498 26.52C139.498 27.8267 139.125 29 138.378 30.04C137.658 31.0533 136.605 31.8533 135.218 32.44C133.858 33.0267 132.272 33.32 130.458 33.32ZM164.723 21.48C164.723 22.12 164.683 22.7867 164.603 23.48H149.123C149.23 24.8667 149.67 25.9333 150.443 26.68C151.243 27.4 152.216 27.76 153.363 27.76C155.07 27.76 156.256 27.04 156.923 25.6H164.203C163.83 27.0667 163.15 28.3867 162.163 29.56C161.203 30.7333 159.99 31.6533 158.523 32.32C157.056 32.9867 155.416 33.32 153.603 33.32C151.416 33.32 149.47 32.8533 147.763 31.92C146.056 30.9867 144.723 29.6533 143.763 27.92C142.803 26.1867 142.323 24.16 142.323 21.84C142.323 19.52 142.79 17.4933 143.723 15.76C144.683 14.0267 146.016 12.6933 147.723 11.76C149.43 10.8267 151.39 10.36 153.603 10.36C155.763 10.36 157.683 10.8133 159.363 11.72C161.043 12.6267 162.35 13.92 163.283 15.6C164.243 17.28 164.723 19.24 164.723 21.48ZM157.723 19.68C157.723 18.5067 157.323 17.5733 156.523 16.88C155.723 16.1867 154.723 15.84 153.523 15.84C152.376 15.84 151.403 16.1733 150.603 16.84C149.83 17.5067 149.35 18.4533 149.163 19.68H157.723Z" fill="#477CD8"/>
</svg>
